{
  "accessors": [
    {
      "bufferView": 2,
      "componentType": 5126,
      "count": 118,
      "max": [
        7.9796080589294434,
        2.7521979808807373,
        8.8649654388427734
      ],
      "min": [
        -3.5328400135040283,
        1.6135959625244141,
        8.6966934204101562
      ],
      "type": "VEC3"
    },
    {
      "bufferView": 2,
      "byteOffset": 1416,
      "componentType": 5126,
      "count": 118,
      "max": [
        1,
        1,
        1
      ],
      "min": [
        -1,
        -1,
        -1
      ],
      "type": "VEC3"
    },
    {
      "bufferView": 3,
      "componentType": 5126,
      "count": 118,
      "max": [
        1,
        1,
        0.98695498704910278,
        1
      ],
      "min": [
        -0.81068110466003418,
        -1,
        -0.57356393337249756,
        -1
      ],
      "type": "VEC4"
    },
    {
      "bufferView": 0,
      "componentType": 5125,
      "count": 540,
      "max": [
        117
      ],
      "min": [
        0
      ],
      "type": "SCALAR"
    },
    {
      "bufferView": 2,
      "byteOffset": 2832,
      "componentType": 5126,
      "count": 10,
      "max": [
        -2.0441739559173584,
        2.5906820297241211,
        8.5532560348510742
      ],
      "min": [
        -2.6697180271148682,
        2.3651750087738037,
        8.3529996871948242
      ],
      "type": "VEC3"
    },
    {
      "bufferView": 2,
      "byteOffset": 2952,
      "componentType": 5126,
      "count": 10,
      "max": [
        0.012069002725183964,
        0.99430376291275024,
        0.1059030219912529
      ],
      "min": [
        -0.43324309587478638,
        0.89570122957229614,
        0.10009200125932693
      ],
      "type": "VEC3"
    },
    {
      "bufferView": 3,
      "byteOffset": 1888,
      "componentType": 5126,
      "count": 10,
      "max": [
        -0.82515472173690796,
        0.054699867963790894,
        -0.4097687304019928,
        1
      ],
      "min": [
        -0.91054815053939819,
        -0.3495490550994873,
        -0.44379466772079468,
        1
      ],
      "type": "VEC4"
    },
    {
      "bufferView": 0,
      "byteOffset": 2160,
      "componentType": 5125,
      "count": 24,
      "max": [
        9
      ],
      "min": [
        0
      ],
      "type": "SCALAR"
    },
    {
      "bufferView": 2,
      "byteOffset": 3072,
      "componentType": 5126,
      "count": 1052,
      "max": [
        7.1908998489379883,
        2.789992094039917,
        8.5532560348510742
      ],
      "min": [
        -2.6878609657287598,
        2.260761022567749,
        6.4928960800170898
      ],
      "type": "VEC3"
    },
    {
      "bufferView": 2,
      "byteOffset": 15696,
      "componentType": 5126,
      "count": 1052,
      "max": [
        0.47500318288803101,
        0.9943619966506958,
        0.10654902458190918
      ],
      "min": [
        -0.43324300646781921,
        0.87553930282592773,
        0.088322967290878296
      ],
      "type": "VEC3"
    },
    {
      "bufferView": 3,
      "byteOffset": 2048,
      "componentType": 5126,
      "count": 1052,
      "max": [
        -0.82516205310821533,
        0.48263543844223022,
        -0.20509356260299683,
        1
      ],
      "min": [
        -0.96684622764587402,
        -0.34955212473869324,
        -0.44378378987312317,
        1
      ],
      "type": "VEC4"
    },
    {
      "bufferView": 1,
      "componentType": 5126,
      "count": 1052,
      "max": [
        0.87952101230621338,
        0.63063997030258179
      ],
      "min": [
        0.09679800271987915,
        0.38002601265907288
      ],
      "type": "VEC2"
    },
    {
      "bufferView": 0,
      "byteOffset": 2256,
      "componentType": 5125,
      "count": 5742,
      "max": [
        1051
      ],
      "min": [
        0
      ],
      "type": "SCALAR"
    },
    {
      "bufferView": 2,
      "byteOffset": 28320,
      "componentType": 5126,
      "count": 344,
      "max": [
        7.9274210929870605,
        2.3400509357452393,
        8.7403221130371094
      ],
      "min": [
        -3.4167189598083496,
        1.8406510353088379,
        8.3574647903442383
      ],
      "type": "VEC3"
    },
    {
      "bufferView": 2,
      "byteOffset": 32448,
      "componentType": 5126,
      "count": 344,
      "max": [
        0.99994087219238281,
        0.99997133016586304,
        0.99995726346969604
      ],
      "min": [
        -0.99994099140167236,
        -0.99997133016586304,
        -0.99995726346969604
      ],
      "type": "VEC3"
    },
    {
      "bufferView": 3,
      "byteOffset": 18880,
      "componentType": 5126,
      "count": 344,
      "max": [
        0.52620422840118408,
        0.99999469518661499,
        0.99997448921203613,
        1
      ],
      "min": [
        -0.50725638866424561,
        -0.99991917610168457,
        -0.99997454881668091,
        1
      ],
      "type": "VEC4"
    },
    {
      "bufferView": 0,
      "byteOffset": 25224,
      "componentType": 5125,
      "count": 1800,
      "max": [
        343
      ],
      "min": [
        0
      ],
      "type": "SCALAR"
    },
    {
      "bufferView": 2,
      "byteOffset": 36576,
      "componentType": 5126,
      "count": 882,
      "max": [
        6.995689868927002,
        2.331279993057251,
        3.7667160034179688
      ],
      "min": [
        -2.7057878971099854,
        1.4095309972763062,
        3.6786398887634277
      ],
      "type": "VEC3"
    },
    {
      "bufferView": 2,
      "byteOffset": 47160,
      "componentType": 5126,
      "count": 882,
      "max": [
        1,
        1,
        0.99982225894927979
      ],
      "min": [
        -1,
        -1,
        -0.99982261657714844
      ],
      "type": "VEC3"
    },
    {
      "bufferView": 3,
      "byteOffset": 24384,
      "componentType": 5126,
      "count": 882,
      "max": [
        0.99724298715591431,
        0.99884313344955444,
        0.39637675881385803,
        1
      ],
      "min": [
        -0.99724215269088745,
        -0.97074633836746216,
        -0.41796106100082397,
        1
      ],
      "type": "VEC4"
    },
    {
      "bufferView": 0,
      "byteOffset": 32424,
      "componentType": 5125,
      "count": 4800,
      "max": [
        881
      ],
      "min": [
        0
      ],
      "type": "SCALAR"
    },
    {
      "bufferView": 2,
      "byteOffset": 57744,
      "componentType": 5126,
      "count": 2048,
      "max": [
        7.1679301261901855,
        2.4464960098266602,
        8.4223566055297852
      ],
      "min": [
        -2.787506103515625,
        1.2650480270385742,
        0
      ],
      "type": "VEC3"
    },
    {
      "bufferView": 2,
      "byteOffset": 82320,
      "componentType": 5126,
      "count": 2048,
      "max": [
        0.96674263477325439,
        0.99999678134918213,
        0.74646216630935669
      ],
      "min": [
        -0.9793848991394043,
        0.095629021525382996,
        -0.74646204710006714
      ],
      "type": "VEC3"
    },
    {
      "bufferView": 3,
      "byteOffset": 38496,
      "componentType": 5126,
      "count": 2048,
      "max": [
        0.9992871880531311,
        0.98970204591751099,
        0.45022329688072205,
        1
      ],
      "min": [
        -0.21678300201892853,
        -0.97050142288208008,
        -0.99947893619537354,
        1
      ],
      "type": "VEC4"
    },
    {
      "bufferView": 1,
      "byteOffset": 8416,
      "componentType": 5126,
      "count": 2048,
      "max": [
        0.98331499099731445,
        0.8702470064163208
      ],
      "min": [
        0.014124000445008278,
        0.46090900897979736
      ],
      "type": "VEC2"
    },
    {
      "bufferView": 0,
      "byteOffset": 51624,
      "componentType": 5125,
      "count": 11532,
      "max": [
        2047
      ],
      "min": [
        0
      ],
      "type": "SCALAR"
    },
    {
      "bufferView": 2,
      "byteOffset": 106896,
      "componentType": 5126,
      "count": 884,
      "max": [
        7.1987447738647461,
        2.7917089462280273,
        4.5853080749511719
      ],
      "min": [
        -2.9611260890960693,
        2.1371619701385498,
        3.2450740337371826
      ],
      "type": "VEC3"
    },
    {
      "bufferView": 2,
      "byteOffset": 117504,
      "componentType": 5126,
      "count": 884,
      "max": [
        0.99495577812194824,
        0.99977397918701172,
        0.99464714527130127
      ],
      "min": [
        -0.99814647436141968,
        -0.99988323450088501,
        -0.98851710557937622
      ],
      "type": "VEC3"
    },
    {
      "bufferView": 3,
      "byteOffset": 71264,
      "componentType": 5126,
      "count": 884,
      "max": [
        0.99939066171646118,
        0.91927158832550049,
        0.98828792572021484,
        1
      ],
      "min": [
        -0.99484378099441528,
        -0.94869440793991089,
        -0.99945926666259766,
        -1
      ],
      "type": "VEC4"
    },
    {
      "bufferView": 1,
      "byteOffset": 24800,
      "componentType": 5126,
      "count": 884,
      "max": [
        0.90136301517486572,
        0.92740499973297119
      ],
      "min": [
        0.20995500683784485,
        0.073848001658916473
      ],
      "type": "VEC2"
    },
    {
      "bufferView": 0,
      "byteOffset": 97752,
      "componentType": 5125,
      "count": 4704,
      "max": [
        883
      ],
      "min": [
        0
      ],
      "type": "SCALAR"
    }
  ],
  "asset": {
    "extras": {
      "author": "maypassamon (https://sketchfab.com/maypassamon)",
      "license": "CC-BY-4.0 (http://creativecommons.org/licenses/by/4.0/)",
      "source": "https://sketchfab.com/models/eb90ed20163c4fe48496b98f6afbcfc0",
      "title": "Window Drapes"
    },
    "generator": "Sketchfab-3.18.7",
    "version": "2.0"
  },
  "bufferViews": [
    {
      "buffer": 0,
      "byteLength": 116568,
      "byteOffset": 0,
      "name": "floatBufferViews",
      "target": 34963
    },
    {
      "buffer": 0,
      "byteLength": 31872,
      "byteOffset": 116568,
      "byteStride": 8,
      "name": "floatBufferViews",
      "target": 34962
    },
    {
      "buffer": 0,
      "byteLength": 128112,
      "byteOffset": 148440,
      "byteStride": 12,
      "name": "floatBufferViews",
      "target": 34962
    },
    {
      "buffer": 0,
      "byteLength": 85408,
      "byteOffset": 276552,
      "byteStride": 16,
      "name": "floatBufferViews",
      "target": 34962
    }
  ],
  "buffers": [
    {
      "byteLength": 361960,
      "uri": "scene.bin"
    }
  ],
  "images": [
    {
      "uri": "textures/lambert4SG_baseColor.png"
    },
    {
      "uri": "textures/lambert7SG_baseColor.png"
    },
    {
      "uri": "textures/lambert3SG_baseColor.png"
    }
  ],
  "materials": [
    {
      "doubleSided": true,
      "emissiveFactor": [
        0,
        0,
        0
      ],
      "name": "initialShadingGroup",
      "pbrMetallicRoughness": {
        "baseColorFactor": [
          0.62,
          0.059999999999999998,
          0.059999999999999998,
          1
        ],
        "metallicFactor": 0,
        "roughnessFactor": 1
      }
    },
    {
      "doubleSided": true,
      "emissiveFactor": [
        0,
        0,
        0
      ],
      "name": "lambert10SG",
      "pbrMetallicRoughness": {
        "baseColorFactor": [
          0.14999999999999999,
          0.040000000000000001,
          0,
          1
        ],
        "metallicFactor": 0,
        "roughnessFactor": 1
      }
    },
    {
      "doubleSided": true,
      "emissiveFactor": [
        0,
        0,
        0
      ],
      "name": "lambert11SG",
      "pbrMetallicRoughness": {
        "baseColorFactor": [
          0,
          0,
          0.029999999999999999,
          1
        ],
        "metallicFactor": 0,
        "roughnessFactor": 1
      }
    },
    {
      "doubleSided": true,
      "emissiveFactor": [
        0,
        0,
        0
      ],
      "name": "lambert3SG",
      "pbrMetallicRoughness": {
        "baseColorFactor": [
          1,
          1,
          1,
          1
        ],
        "baseColorTexture": {
          "index": 2,
          "texCoord": 0
        },
        "metallicFactor": 0,
        "roughnessFactor": 1
      }
    },
    {
      "doubleSided": true,
      "emissiveFactor": [
        0,
        0,
        0
      ],
      "name": "lambert4SG",
      "pbrMetallicRoughness": {
        "baseColorFactor": [
          1,
          1,
          1,
          1
        ],
        "baseColorTexture": {
          "index": 0,
          "texCoord": 0
        },
        "metallicFactor": 0,
        "roughnessFactor": 1
      }
    },
    {
      "doubleSided": true,
      "emissiveFactor": [
        0,
        0,
        0
      ],
      "name": "lambert7SG",
      "pbrMetallicRoughness": {
        "baseColorFactor": [
          1,
          1,
          1,
          1
        ],
        "baseColorTexture": {
          "index": 1,
          "texCoord": 0
        },
        "metallicFactor": 0,
        "roughnessFactor": 1
      }
    },
    {
      "doubleSided": true,
      "emissiveFactor": [
        0,
        0,
        0
      ],
      "name": "lambert9SG",
      "pbrMetallicRoughness": {
        "baseColorFactor": [
          1,
          0.96999999999999997,
          0.60999999999999999,
          1
        ],
        "metallicFactor": 0,
        "roughnessFactor": 1
      }
    }
  ],
  "meshes": [
    {
      "primitives": [
        {
          "attributes": {
            "NORMAL": 1,
            "POSITION": 0,
            "TANGENT": 2
          },
          "indices": 3,
          "material": 1,
          "mode": 4
        }
      ]
    },
    {
      "primitives": [
        {
          "attributes": {
            "NORMAL": 5,
            "POSITION": 4,
            "TANGENT": 6
          },
          "indices": 7,
          "material": 2,
          "mode": 4
        }
      ]
    },
    {
      "primitives": [
        {
          "attributes": {
            "NORMAL": 9,
            "POSITION": 8,
            "TANGENT": 10,
            "TEXCOORD_0": 11
          },
          "indices": 12,
          "material": 4,
          "mode": 4
        }
      ]
    },
    {
      "primitives": [
        {
          "attributes": {
            "NORMAL": 14,
            "POSITION": 13,
            "TANGENT": 15
          },
          "indices": 16,
          "material": 6,
          "mode": 4
        }
      ]
    },
    {
      "primitives": [
        {
          "attributes": {
            "NORMAL": 18,
            "POSITION": 17,
            "TANGENT": 19
          },
          "indices": 20,
          "material": 0,
          "mode": 4
        }
      ]
    },
    {
      "primitives": [
        {
          "attributes": {
            "NORMAL": 22,
            "POSITION": 21,
            "TANGENT": 23,
            "TEXCOORD_0": 24
          },
          "indices": 25,
          "material": 3,
          "mode": 4
        }
      ]
    },
    {
      "primitives": [
        {
          "attributes": {
            "NORMAL": 27,
            "POSITION": 26,
            "TANGENT": 28,
            "TEXCOORD_0": 29
          },
          "indices": 30,
          "material": 5,
          "mode": 4
        }
      ]
    }
  ],
  "nodes": [
    {
      "children": [
        1
      ],
      "name": "RootNode (gltf orientation matrix)",
      "rotation": [
        -0.70710678118654746,
        -0,
        -0,
        0.70710678118654757
      ]
    },
    {
      "children": [
        2
      ],
      "name": "RootNode (model correction matrix)"
    },
    {
      "children": [
        3,
        4,
        5,
        6,
        7,
        8,
        9
      ],
      "name": "Window Drapes.obj.cleaner.materialmerger.gles"
    },
    {
      "mesh": 0,
      "name": ""
    },
    {
      "mesh": 1,
      "name": ""
    },
    {
      "mesh": 2,
      "name": ""
    },
    {
      "mesh": 3,
      "name": ""
    },
    {
      "mesh": 4,
      "name": ""
    },
    {
      "mesh": 5,
      "name": ""
    },
    {
      "mesh": 6,
      "name": ""
    }
  ],
  "samplers": [
    {
      "magFilter": 9729,
      "minFilter": 9987,
      "wrapS": 10497,
      "wrapT": 10497
    }
  ],
  "scene": 0,
  "scenes": [
    {
      "name": "OSG_Scene",
      "nodes": [
        0
      ]
    }
  ],
  "textures": [
    {
      "sampler": 0,
      "source": 0
    },
    {
      "sampler": 0,
      "source": 1
    },
    {
      "sampler": 0,
      "source": 2
    }
  ]
}

