{
  "accessors": [
    {
      "bufferView": 2,
      "componentType": 5126,
      "count": 180,
      "max": [
        0.097120299935340881,
        0.77175402641296387,
        0.62209099531173706
      ],
      "min": [
        -0.097120299935340881,
        -0.82972300052642822,
        -0.072392202913761139
      ],
      "type": "VEC3"
    },
    {
      "bufferView": 2,
      "byteOffset": 2160,
      "componentType": 5126,
      "count": 180,
      "max": [
        0.99998235702514648,
        1,
        1
      ],
      "min": [
        -0.99998235702514648,
        -0.84690272808074951,
        -0.99597561359405518
      ],
      "type": "VEC3"
    },
    {
      "bufferView": 3,
      "componentType": 5126,
      "count": 180,
      "max": [
        1,
        0.92991805076599121,
        0.99834632873535156,
        1
      ],
      "min": [
        -1,
        -0.93070727586746216,
        -0.99834609031677246,
        1
      ],
      "type": "VEC4"
    },
    {
      "bufferView": 1,
      "componentType": 5126,
      "count": 180,
      "max": [
        0.97869300842285156,
        0.99143499135971069
      ],
      "min": [
        0.0045542200095951557,
        0.42219299077987671
      ],
      "type": "VEC2"
    },
    {
      "bufferView": 0,
      "componentType": 5125,
      "count": 636,
      "max": [
        179
      ],
      "min": [
        0
      ],
      "type": "SCALAR"
    },
    {
      "bufferView": 2,
      "byteOffset": 4320,
      "componentType": 5126,
      "count": 106,
      "max": [
        0.089101202785968781,
        -0.80045902729034424,
        0.11536400020122528
      ],
      "min": [
        -0.089101202785968781,
        -0.82972300052642822,
        -0.062838897109031677
      ],
      "type": "VEC3"
    },
    {
      "bufferView": 2,
      "byteOffset": 5592,
      "componentType": 5126,
      "count": 106,
      "max": [
        0.99603497982025146,
        1,
        0.99603497982025146
      ],
      "min": [
        -0.99603497982025146,
        -1,
        -0.99603497982025146
      ],
      "type": "VEC3"
    },
    {
      "bufferView": 3,
      "byteOffset": 2880,
      "componentType": 5126,
      "count": 106,
      "max": [
        0.99603503942489624,
        0.050046462565660477,
        1,
        1
      ],
      "min": [
        -0.99650776386260986,
        -0.0050621521659195423,
        -1,
        1
      ],
      "type": "VEC4"
    },
    {
      "bufferView": 1,
      "byteOffset": 1440,
      "componentType": 5126,
      "count": 106,
      "max": [
        0.40283301472663879,
        0.92343598604202271
      ],
      "min": [
        0.08901040256023407,
        0.86388701200485229
      ],
      "type": "VEC2"
    },
    {
      "bufferView": 0,
      "byteOffset": 2544,
      "componentType": 5125,
      "count": 276,
      "max": [
        105
      ],
      "min": [
        0
      ],
      "type": "SCALAR"
    },
    {
      "bufferView": 2,
      "byteOffset": 6864,
      "componentType": 5126,
      "count": 94,
      "max": [
        0.47879499197006226,
        -0.83408701419830322,
        0.74904400110244751
      ],
      "min": [
        -0.47879499197006226,
        -1,
        -0.22331799566745758
      ],
      "type": "VEC3"
    },
    {
      "bufferView": 2,
      "byteOffset": 7992,
      "componentType": 5126,
      "count": 94,
      "max": [
        0.98480778932571411,
        1,
        0.99827724695205688
      ],
      "min": [
        -0.98480778932571411,
        -1,
        -0.99827724695205688
      ],
      "type": "VEC3"
    },
    {
      "bufferView": 3,
      "byteOffset": 4576,
      "componentType": 5126,
      "count": 94,
      "max": [
        0.43553060293197632,
        0.99541950225830078,
        0.99999910593032837,
        1
      ],
      "min": [
        -0.98480916023254395,
        -0.99541944265365601,
        -0.17365379631519318,
        1
      ],
      "type": "VEC4"
    },
    {
      "bufferView": 1,
      "byteOffset": 2288,
      "componentType": 5126,
      "count": 94,
      "max": [
        0.99699997901916504,
        0.42605900764465332
      ],
      "min": [
        0.28086400032043457,
        0.0079902801662683487
      ],
      "type": "VEC2"
    },
    {
      "bufferView": 0,
      "byteOffset": 3648,
      "componentType": 5125,
      "count": 432,
      "max": [
        93
      ],
      "min": [
        0
      ],
      "type": "SCALAR"
    },
    {
      "bufferView": 2,
      "byteOffset": 9120,
      "componentType": 5126,
      "count": 536,
      "max": [
        0.35636499524116516,
        1,
        0.065769396722316742
      ],
      "min": [
        -0.35636499524116516,
        0.10024700313806534,
        -0.74904400110244751
      ],
      "type": "VEC3"
    },
    {
      "bufferView": 2,
      "byteOffset": 15552,
      "componentType": 5126,
      "count": 536,
      "max": [
        0.99603509902954102,
        0.99130576848983765,
        0.99544709920883179
      ],
      "min": [
        -0.99603509902954102,
        -0.99961960315704346,
        -0.99547165632247925
      ],
      "type": "VEC3"
    },
    {
      "bufferView": 3,
      "byteOffset": 6080,
      "componentType": 5126,
      "count": 536,
      "max": [
        0.99999916553497314,
        0.53377437591552734,
        0.99665617942810059,
        1
      ],
      "min": [
        -1,
        -0.95419645309448242,
        -0.84730112552642822,
        1
      ],
      "type": "VEC4"
    },
    {
      "bufferView": 1,
      "byteOffset": 3040,
      "componentType": 5126,
      "count": 536,
      "max": [
        0.70272600650787354,
        0.97408902645111084
      ],
      "min": [
        0.0060550798662006855,
        0.25927698612213135
      ],
      "type": "VEC2"
    },
    {
      "bufferView": 0,
      "byteOffset": 5376,
      "componentType": 5125,
      "count": 1980,
      "max": [
        535
      ],
      "min": [
        0
      ],
      "type": "SCALAR"
    },
    {
      "bufferView": 2,
      "byteOffset": 21984,
      "componentType": 5126,
      "count": 127,
      "max": [
        0.11137700080871582,
        0.66192901134490967,
        -0.18109600245952606
      ],
      "min": [
        -0.11137700080871582,
        0.40953600406646729,
        -0.41806399822235107
      ],
      "type": "VEC3"
    },
    {
      "bufferView": 2,
      "byteOffset": 23508,
      "componentType": 5126,
      "count": 127,
      "max": [
        0.98711574077606201,
        0.85318940877914429,
        0.99786049127578735
      ],
      "min": [
        -0.98711574077606201,
        -0.99578821659088135,
        -0.99877578020095825
      ],
      "type": "VEC3"
    },
    {
      "bufferView": 3,
      "byteOffset": 14656,
      "componentType": 5126,
      "count": 127,
      "max": [
        1,
        0.77141177654266357,
        0.8572118878364563,
        1
      ],
      "min": [
        -0.99967086315155029,
        -0.77167457342147827,
        -0.86197537183761597,
        1
      ],
      "type": "VEC4"
    },
    {
      "bufferView": 1,
      "byteOffset": 7328,
      "componentType": 5126,
      "count": 127,
      "max": [
        0.99699997901916504,
        0.5673530101776123
      ],
      "min": [
        0.0030000000260770321,
        0.0030000000260770321
      ],
      "type": "VEC2"
    },
    {
      "bufferView": 0,
      "byteOffset": 13296,
      "componentType": 5125,
      "count": 468,
      "max": [
        126
      ],
      "min": [
        0
      ],
      "type": "SCALAR"
    }
  ],
  "asset": {
    "extras": {
      "author": "gromorg (https://sketchfab.com/gromorg)",
      "license": "CC-BY-4.0 (http://creativecommons.org/licenses/by/4.0/)",
      "source": "https://sketchfab.com/models/cd2060b4a8524edfbce10dec57ba7c9f",
      "title": "simple table lamp"
    },
    "generator": "Sketchfab-3.22.5",
    "version": "2.0"
  },
  "bufferViews": [
    {
      "buffer": 0,
      "byteLength": 15168,
      "byteOffset": 0,
      "name": "floatBufferViews",
      "target": 34963
    },
    {
      "buffer": 0,
      "byteLength": 8344,
      "byteOffset": 15168,
      "byteStride": 8,
      "name": "floatBufferViews",
      "target": 34962
    },
    {
      "buffer": 0,
      "byteLength": 25032,
      "byteOffset": 23512,
      "byteStride": 12,
      "name": "floatBufferViews",
      "target": 34962
    },
    {
      "buffer": 0,
      "byteLength": 16688,
      "byteOffset": 48544,
      "byteStride": 16,
      "name": "floatBufferViews",
      "target": 34962
    }
  ],
  "buffers": [
    {
      "byteLength": 65232,
      "uri": "scene.bin"
    }
  ],
  "images": [
    {
      "uri": "textures/material_metallicRoughness.png"
    },
    {
      "uri": "textures/material_normal.png"
    },
    {
      "uri": "textures/material_baseColor.jpeg"
    },
    {
      "uri": "textures/material_2_emissive.jpeg"
    },
    {
      "uri": "textures/material_2_metallicRoughness.png"
    },
    {
      "uri": "textures/material_2_normal.png"
    },
    {
      "uri": "textures/material_2_baseColor.jpeg"
    }
  ],
  "materials": [
    {
      "doubleSided": true,
      "emissiveFactor": [
        0,
        0,
        0
      ],
      "name": "material",
      "normalTexture": {
        "index": 1,
        "scale": 1,
        "texCoord": 0
      },
      "occlusionTexture": {
        "index": 0,
        "strength": 1,
        "texCoord": 0
      },
      "pbrMetallicRoughness": {
        "baseColorFactor": [
          1,
          1,
          1,
          1
        ],
        "baseColorTexture": {
          "index": 2,
          "texCoord": 0
        },
        "metallicFactor": 1,
        "metallicRoughnessTexture": {
          "index": 0,
          "texCoord": 0
        },
        "roughnessFactor": 1
      }
    },
    {
      "doubleSided": true,
      "emissiveFactor": [
        1,
        1,
        1
      ],
      "emissiveTexture": {
        "index": 3,
        "texCoord": 0
      },
      "name": "material_2",
      "normalTexture": {
        "index": 5,
        "scale": 1,
        "texCoord": 0
      },
      "occlusionTexture": {
        "index": 4,
        "strength": 1,
        "texCoord": 0
      },
      "pbrMetallicRoughness": {
        "baseColorFactor": [
          1,
          1,
          1,
          1
        ],
        "baseColorTexture": {
          "index": 6,
          "texCoord": 0
        },
        "metallicFactor": 1,
        "metallicRoughnessTexture": {
          "index": 4,
          "texCoord": 0
        },
        "roughnessFactor": 1
      }
    }
  ],
  "meshes": [
    {
      "name": "defaultMaterial",
      "primitives": [
        {
          "attributes": {
            "NORMAL": 1,
            "POSITION": 0,
            "TANGENT": 2,
            "TEXCOORD_0": 3
          },
          "indices": 4,
          "material": 1,
          "mode": 4
        }
      ]
    },
    {
      "name": "defaultMaterial",
      "primitives": [
        {
          "attributes": {
            "NORMAL": 6,
            "POSITION": 5,
            "TANGENT": 7,
            "TEXCOORD_0": 8
          },
          "indices": 9,
          "material": 1,
          "mode": 4
        }
      ]
    },
    {
      "name": "defaultMaterial",
      "primitives": [
        {
          "attributes": {
            "NORMAL": 11,
            "POSITION": 10,
            "TANGENT": 12,
            "TEXCOORD_0": 13
          },
          "indices": 14,
          "material": 1,
          "mode": 4
        }
      ]
    },
    {
      "name": "defaultMaterial",
      "primitives": [
        {
          "attributes": {
            "NORMAL": 16,
            "POSITION": 15,
            "TANGENT": 17,
            "TEXCOORD_0": 18
          },
          "indices": 19,
          "material": 1,
          "mode": 4
        }
      ]
    },
    {
      "name": "defaultMaterial",
      "primitives": [
        {
          "attributes": {
            "NORMAL": 21,
            "POSITION": 20,
            "TANGENT": 22,
            "TEXCOORD_0": 23
          },
          "indices": 24,
          "material": 0,
          "mode": 4
        }
      ]
    }
  ],
  "nodes": [
    {
      "children": [
        1
      ],
      "name": "RootNode (gltf orientation matrix)",
      "rotation": [
        -0.70710678118654746,
        -0,
        -0,
        0.70710678118654757
      ]
    },
    {
      "children": [
        2
      ],
      "name": "RootNode (model correction matrix)"
    },
    {
      "children": [
        3,
        5,
        7,
        9,
        11
      ],
      "matrix": [
        1,
        0,
        0,
        0,
        0,
        -4.3711390063094768e-08,
        0.999999999999999,
        0,
        0,
        -0.999999999999999,
        -4.3711390063094768e-08,
        0,
        0,
        0,
        0,
        1
      ],
      "name": "Collada visual scene group"
    },
    {
      "children": [
        4
      ],
      "name": "Mesh5"
    },
    {
      "mesh": 0,
      "name": "defaultMaterial"
    },
    {
      "children": [
        6
      ],
      "name": "Mesh4"
    },
    {
      "mesh": 1,
      "name": "defaultMaterial"
    },
    {
      "children": [
        8
      ],
      "name": "Mesh3"
    },
    {
      "mesh": 2,
      "name": "defaultMaterial"
    },
    {
      "children": [
        10
      ],
      "name": "Mesh2"
    },
    {
      "mesh": 3,
      "name": "defaultMaterial"
    },
    {
      "children": [
        12
      ],
      "name": "Mesh1"
    },
    {
      "mesh": 4,
      "name": "defaultMaterial"
    }
  ],
  "samplers": [
    {
      "magFilter": 9729,
      "minFilter": 9987,
      "wrapS": 10497,
      "wrapT": 10497
    }
  ],
  "scene": 0,
  "scenes": [
    {
      "name": "OSG_Scene",
      "nodes": [
        0
      ]
    }
  ],
  "textures": [
    {
      "sampler": 0,
      "source": 0
    },
    {
      "sampler": 0,
      "source": 1
    },
    {
      "sampler": 0,
      "source": 2
    },
    {
      "sampler": 0,
      "source": 3
    },
    {
      "sampler": 0,
      "source": 4
    },
    {
      "sampler": 0,
      "source": 5
    },
    {
      "sampler": 0,
      "source": 6
    }
  ]
}

